<mxfile host="app.diagrams.net" agent="Mozilla/5.0 (Windows NT 10.0; Win64; x64) AppleWebKit/537.36 (KHTML, like Gecko) Chrome/130.0.0.0 Safari/537.36" version="24.8.0">
  <diagram name="Page-1" id="e56a1550-8fbb-45ad-956c-1786394a9013">
    <mxGraphModel dx="1379" dy="827" grid="1" gridSize="10" guides="1" tooltips="1" connect="1" arrows="1" fold="1" page="1" pageScale="1" pageWidth="1100" pageHeight="850" background="none" math="0" shadow="0">
      <root>
        <mxCell id="0" />
        <mxCell id="1" parent="0" />
        <mxCell id="2e49270ec7c68f3f-80" value="Campus" style="swimlane;html=1;fontStyle=0;childLayout=stackLayout;horizontal=1;startSize=26;fillColor=#e0e0e0;horizontalStack=0;resizeParent=1;resizeLast=0;collapsible=1;marginBottom=0;swimlaneFillColor=#ffffff;align=center;rounded=0;shadow=0;comic=0;labelBackgroundColor=none;strokeWidth=1;fontFamily=Verdana;fontSize=14" parent="1" vertex="1">
          <mxGeometry x="450" width="160" height="132" as="geometry" />
        </mxCell>
        <mxCell id="2e49270ec7c68f3f-81" value="id_campus" style="shape=partialRectangle;top=0;left=0;right=0;bottom=1;html=1;align=left;verticalAlign=middle;fillColor=none;spacingLeft=34;spacingRight=4;whiteSpace=wrap;overflow=hidden;rotatable=0;points=[[0,0.5],[1,0.5]];portConstraint=eastwest;dropTarget=0;fontStyle=5;" parent="2e49270ec7c68f3f-80" vertex="1">
          <mxGeometry y="26" width="160" height="30" as="geometry" />
        </mxCell>
        <mxCell id="2e49270ec7c68f3f-82" value="PK" style="shape=partialRectangle;top=0;left=0;bottom=0;html=1;fillColor=none;align=left;verticalAlign=middle;spacingLeft=4;spacingRight=4;whiteSpace=wrap;overflow=hidden;rotatable=0;points=[];portConstraint=eastwest;part=1;" parent="2e49270ec7c68f3f-81" vertex="1" connectable="0">
          <mxGeometry width="30" height="30" as="geometry" />
        </mxCell>
        <mxCell id="KTCDiWODFEPLcZD3HsDk-192" value="Ubicación" style="shape=partialRectangle;connectable=0;fillColor=none;top=0;left=0;bottom=0;right=0;align=left;spacingLeft=6;fontStyle=0;overflow=hidden;whiteSpace=wrap;html=1;" vertex="1" parent="2e49270ec7c68f3f-80">
          <mxGeometry y="56" width="160" height="22" as="geometry">
            <mxRectangle width="130" height="30" as="alternateBounds" />
          </mxGeometry>
        </mxCell>
        <mxCell id="KTCDiWODFEPLcZD3HsDk-193" value="&lt;b&gt;FK = id_promoción&lt;/b&gt;" style="shape=partialRectangle;connectable=0;fillColor=none;top=0;left=0;bottom=0;right=0;align=left;spacingLeft=6;fontStyle=0;overflow=hidden;whiteSpace=wrap;html=1;" vertex="1" parent="2e49270ec7c68f3f-80">
          <mxGeometry y="78" width="160" height="24" as="geometry">
            <mxRectangle width="130" height="30" as="alternateBounds" />
          </mxGeometry>
        </mxCell>
        <mxCell id="KTCDiWODFEPLcZD3HsDk-194" value="&lt;b&gt;FK = id_profesores&lt;/b&gt;" style="shape=partialRectangle;connectable=0;fillColor=none;top=0;left=0;bottom=0;right=0;align=left;spacingLeft=6;fontStyle=0;overflow=hidden;whiteSpace=wrap;html=1;" vertex="1" parent="2e49270ec7c68f3f-80">
          <mxGeometry y="102" width="160" height="28" as="geometry">
            <mxRectangle width="130" height="30" as="alternateBounds" />
          </mxGeometry>
        </mxCell>
        <mxCell id="KTCDiWODFEPLcZD3HsDk-210" value="Cursos" style="swimlane;html=1;fontStyle=0;childLayout=stackLayout;horizontal=1;startSize=26;fillColor=#e0e0e0;horizontalStack=0;resizeParent=1;resizeLast=0;collapsible=1;marginBottom=0;swimlaneFillColor=#ffffff;align=center;rounded=0;shadow=0;comic=0;labelBackgroundColor=none;strokeWidth=1;fontFamily=Verdana;fontSize=14" vertex="1" parent="1">
          <mxGeometry x="380" y="190" width="160" height="202" as="geometry" />
        </mxCell>
        <mxCell id="KTCDiWODFEPLcZD3HsDk-211" value="id_cursos" style="shape=partialRectangle;top=0;left=0;right=0;bottom=1;html=1;align=left;verticalAlign=middle;fillColor=none;spacingLeft=34;spacingRight=4;whiteSpace=wrap;overflow=hidden;rotatable=0;points=[[0,0.5],[1,0.5]];portConstraint=eastwest;dropTarget=0;fontStyle=5;" vertex="1" parent="KTCDiWODFEPLcZD3HsDk-210">
          <mxGeometry y="26" width="160" height="30" as="geometry" />
        </mxCell>
        <mxCell id="KTCDiWODFEPLcZD3HsDk-212" value="PK" style="shape=partialRectangle;top=0;left=0;bottom=0;html=1;fillColor=none;align=left;verticalAlign=middle;spacingLeft=4;spacingRight=4;whiteSpace=wrap;overflow=hidden;rotatable=0;points=[];portConstraint=eastwest;part=1;" vertex="1" connectable="0" parent="KTCDiWODFEPLcZD3HsDk-211">
          <mxGeometry width="30" height="30" as="geometry" />
        </mxCell>
        <mxCell id="KTCDiWODFEPLcZD3HsDk-213" value="Nombre" style="shape=partialRectangle;connectable=0;fillColor=none;top=0;left=0;bottom=0;right=0;align=left;spacingLeft=6;fontStyle=0;overflow=hidden;whiteSpace=wrap;html=1;" vertex="1" parent="KTCDiWODFEPLcZD3HsDk-210">
          <mxGeometry y="56" width="160" height="22" as="geometry">
            <mxRectangle width="130" height="30" as="alternateBounds" />
          </mxGeometry>
        </mxCell>
        <mxCell id="KTCDiWODFEPLcZD3HsDk-217" value="Materia" style="shape=partialRectangle;connectable=0;fillColor=none;top=0;left=0;bottom=0;right=0;align=left;spacingLeft=6;fontStyle=0;overflow=hidden;whiteSpace=wrap;html=1;" vertex="1" parent="KTCDiWODFEPLcZD3HsDk-210">
          <mxGeometry y="78" width="160" height="22" as="geometry">
            <mxRectangle width="130" height="30" as="alternateBounds" />
          </mxGeometry>
        </mxCell>
        <mxCell id="KTCDiWODFEPLcZD3HsDk-216" value="Aula" style="shape=partialRectangle;connectable=0;fillColor=none;top=0;left=0;bottom=0;right=0;align=left;spacingLeft=6;fontStyle=0;overflow=hidden;whiteSpace=wrap;html=1;" vertex="1" parent="KTCDiWODFEPLcZD3HsDk-210">
          <mxGeometry y="100" width="160" height="22" as="geometry">
            <mxRectangle width="130" height="30" as="alternateBounds" />
          </mxGeometry>
        </mxCell>
        <mxCell id="KTCDiWODFEPLcZD3HsDk-214" value="&lt;b&gt;FK = id_profesores&lt;/b&gt;" style="shape=partialRectangle;connectable=0;fillColor=none;top=0;left=0;bottom=0;right=0;align=left;spacingLeft=6;fontStyle=0;overflow=hidden;whiteSpace=wrap;html=1;" vertex="1" parent="KTCDiWODFEPLcZD3HsDk-210">
          <mxGeometry y="122" width="160" height="24" as="geometry">
            <mxRectangle width="130" height="30" as="alternateBounds" />
          </mxGeometry>
        </mxCell>
        <mxCell id="KTCDiWODFEPLcZD3HsDk-294" value="&lt;b&gt;FK = id_promoción&lt;/b&gt;" style="shape=partialRectangle;connectable=0;fillColor=none;top=0;left=0;bottom=0;right=0;align=left;spacingLeft=6;fontStyle=0;overflow=hidden;whiteSpace=wrap;html=1;" vertex="1" parent="KTCDiWODFEPLcZD3HsDk-210">
          <mxGeometry y="146" width="160" height="28" as="geometry">
            <mxRectangle width="130" height="30" as="alternateBounds" />
          </mxGeometry>
        </mxCell>
        <mxCell id="KTCDiWODFEPLcZD3HsDk-215" value="&lt;b&gt;FK = id_proyectos&lt;/b&gt;" style="shape=partialRectangle;connectable=0;fillColor=none;top=0;left=0;bottom=0;right=0;align=left;spacingLeft=6;fontStyle=0;overflow=hidden;whiteSpace=wrap;html=1;" vertex="1" parent="KTCDiWODFEPLcZD3HsDk-210">
          <mxGeometry y="174" width="160" height="28" as="geometry">
            <mxRectangle width="130" height="30" as="alternateBounds" />
          </mxGeometry>
        </mxCell>
        <mxCell id="KTCDiWODFEPLcZD3HsDk-226" value="Profesores" style="swimlane;html=1;fontStyle=0;childLayout=stackLayout;horizontal=1;startSize=26;fillColor=#e0e0e0;horizontalStack=0;resizeParent=1;resizeLast=0;collapsible=1;marginBottom=0;swimlaneFillColor=#ffffff;align=center;rounded=0;shadow=0;comic=0;labelBackgroundColor=none;strokeWidth=1;fontFamily=Verdana;fontSize=14" vertex="1" parent="1">
          <mxGeometry x="800" y="40" width="160" height="220" as="geometry" />
        </mxCell>
        <mxCell id="KTCDiWODFEPLcZD3HsDk-227" value="id_profesores" style="shape=partialRectangle;top=0;left=0;right=0;bottom=1;html=1;align=left;verticalAlign=middle;fillColor=none;spacingLeft=34;spacingRight=4;whiteSpace=wrap;overflow=hidden;rotatable=0;points=[[0,0.5],[1,0.5]];portConstraint=eastwest;dropTarget=0;fontStyle=5;" vertex="1" parent="KTCDiWODFEPLcZD3HsDk-226">
          <mxGeometry y="26" width="160" height="30" as="geometry" />
        </mxCell>
        <mxCell id="KTCDiWODFEPLcZD3HsDk-228" value="PK" style="shape=partialRectangle;top=0;left=0;bottom=0;html=1;fillColor=none;align=left;verticalAlign=middle;spacingLeft=4;spacingRight=4;whiteSpace=wrap;overflow=hidden;rotatable=0;points=[];portConstraint=eastwest;part=1;" vertex="1" connectable="0" parent="KTCDiWODFEPLcZD3HsDk-227">
          <mxGeometry width="30" height="30" as="geometry" />
        </mxCell>
        <mxCell id="KTCDiWODFEPLcZD3HsDk-229" value="Nombre" style="shape=partialRectangle;connectable=0;fillColor=none;top=0;left=0;bottom=0;right=0;align=left;spacingLeft=6;fontStyle=0;overflow=hidden;whiteSpace=wrap;html=1;" vertex="1" parent="KTCDiWODFEPLcZD3HsDk-226">
          <mxGeometry y="56" width="160" height="22" as="geometry">
            <mxRectangle width="130" height="30" as="alternateBounds" />
          </mxGeometry>
        </mxCell>
        <mxCell id="KTCDiWODFEPLcZD3HsDk-230" value="Apellido" style="shape=partialRectangle;connectable=0;fillColor=none;top=0;left=0;bottom=0;right=0;align=left;spacingLeft=6;fontStyle=0;overflow=hidden;whiteSpace=wrap;html=1;" vertex="1" parent="KTCDiWODFEPLcZD3HsDk-226">
          <mxGeometry y="78" width="160" height="22" as="geometry">
            <mxRectangle width="130" height="30" as="alternateBounds" />
          </mxGeometry>
        </mxCell>
        <mxCell id="KTCDiWODFEPLcZD3HsDk-236" value="Edad" style="shape=partialRectangle;connectable=0;fillColor=none;top=0;left=0;bottom=0;right=0;align=left;spacingLeft=6;fontStyle=0;overflow=hidden;whiteSpace=wrap;html=1;" vertex="1" parent="KTCDiWODFEPLcZD3HsDk-226">
          <mxGeometry y="100" width="160" height="22" as="geometry">
            <mxRectangle width="130" height="30" as="alternateBounds" />
          </mxGeometry>
        </mxCell>
        <mxCell id="KTCDiWODFEPLcZD3HsDk-234" value="Pronombre" style="shape=partialRectangle;connectable=0;fillColor=none;top=0;left=0;bottom=0;right=0;align=left;spacingLeft=6;fontStyle=0;overflow=hidden;whiteSpace=wrap;html=1;" vertex="1" parent="KTCDiWODFEPLcZD3HsDk-226">
          <mxGeometry y="122" width="160" height="22" as="geometry">
            <mxRectangle width="130" height="30" as="alternateBounds" />
          </mxGeometry>
        </mxCell>
        <mxCell id="KTCDiWODFEPLcZD3HsDk-231" value="Email" style="shape=partialRectangle;connectable=0;fillColor=none;top=0;left=0;bottom=0;right=0;align=left;spacingLeft=6;fontStyle=0;overflow=hidden;whiteSpace=wrap;html=1;" vertex="1" parent="KTCDiWODFEPLcZD3HsDk-226">
          <mxGeometry y="144" width="160" height="22" as="geometry">
            <mxRectangle width="130" height="30" as="alternateBounds" />
          </mxGeometry>
        </mxCell>
        <mxCell id="KTCDiWODFEPLcZD3HsDk-233" value="&lt;b&gt;FK = id_cursos&lt;/b&gt;" style="shape=partialRectangle;connectable=0;fillColor=none;top=0;left=0;bottom=0;right=0;align=left;spacingLeft=6;fontStyle=0;overflow=hidden;whiteSpace=wrap;html=1;" vertex="1" parent="KTCDiWODFEPLcZD3HsDk-226">
          <mxGeometry y="166" width="160" height="28" as="geometry">
            <mxRectangle width="130" height="30" as="alternateBounds" />
          </mxGeometry>
        </mxCell>
        <mxCell id="KTCDiWODFEPLcZD3HsDk-232" value="&lt;b&gt;FK = id_campus&lt;/b&gt;" style="shape=partialRectangle;connectable=0;fillColor=none;top=0;left=0;bottom=0;right=0;align=left;spacingLeft=6;fontStyle=0;overflow=hidden;whiteSpace=wrap;html=1;" vertex="1" parent="KTCDiWODFEPLcZD3HsDk-226">
          <mxGeometry y="194" width="160" height="24" as="geometry">
            <mxRectangle width="130" height="30" as="alternateBounds" />
          </mxGeometry>
        </mxCell>
        <mxCell id="KTCDiWODFEPLcZD3HsDk-238" value="Promociones" style="swimlane;html=1;fontStyle=0;childLayout=stackLayout;horizontal=1;startSize=26;fillColor=#e0e0e0;horizontalStack=0;resizeParent=1;resizeLast=0;collapsible=1;marginBottom=0;swimlaneFillColor=#ffffff;align=center;rounded=0;shadow=0;comic=0;labelBackgroundColor=none;strokeWidth=1;fontFamily=Verdana;fontSize=14" vertex="1" parent="1">
          <mxGeometry x="110" y="40" width="160" height="180" as="geometry" />
        </mxCell>
        <mxCell id="KTCDiWODFEPLcZD3HsDk-239" value="id_promociones" style="shape=partialRectangle;top=0;left=0;right=0;bottom=1;html=1;align=left;verticalAlign=middle;fillColor=none;spacingLeft=34;spacingRight=4;whiteSpace=wrap;overflow=hidden;rotatable=0;points=[[0,0.5],[1,0.5]];portConstraint=eastwest;dropTarget=0;fontStyle=5;" vertex="1" parent="KTCDiWODFEPLcZD3HsDk-238">
          <mxGeometry y="26" width="160" height="30" as="geometry" />
        </mxCell>
        <mxCell id="KTCDiWODFEPLcZD3HsDk-240" value="PK" style="shape=partialRectangle;top=0;left=0;bottom=0;html=1;fillColor=none;align=left;verticalAlign=middle;spacingLeft=4;spacingRight=4;whiteSpace=wrap;overflow=hidden;rotatable=0;points=[];portConstraint=eastwest;part=1;" vertex="1" connectable="0" parent="KTCDiWODFEPLcZD3HsDk-239">
          <mxGeometry width="30" height="30" as="geometry" />
        </mxCell>
        <mxCell id="KTCDiWODFEPLcZD3HsDk-241" value="Nombre" style="shape=partialRectangle;connectable=0;fillColor=none;top=0;left=0;bottom=0;right=0;align=left;spacingLeft=6;fontStyle=0;overflow=hidden;whiteSpace=wrap;html=1;" vertex="1" parent="KTCDiWODFEPLcZD3HsDk-238">
          <mxGeometry y="56" width="160" height="22" as="geometry">
            <mxRectangle width="130" height="30" as="alternateBounds" />
          </mxGeometry>
        </mxCell>
        <mxCell id="KTCDiWODFEPLcZD3HsDk-242" value="Fecha Inicio" style="shape=partialRectangle;connectable=0;fillColor=none;top=0;left=0;bottom=0;right=0;align=left;spacingLeft=6;fontStyle=0;overflow=hidden;whiteSpace=wrap;html=1;" vertex="1" parent="KTCDiWODFEPLcZD3HsDk-238">
          <mxGeometry y="78" width="160" height="22" as="geometry">
            <mxRectangle width="130" height="30" as="alternateBounds" />
          </mxGeometry>
        </mxCell>
        <mxCell id="KTCDiWODFEPLcZD3HsDk-243" value="Fecha Final" style="shape=partialRectangle;connectable=0;fillColor=none;top=0;left=0;bottom=0;right=0;align=left;spacingLeft=6;fontStyle=0;overflow=hidden;whiteSpace=wrap;html=1;" vertex="1" parent="KTCDiWODFEPLcZD3HsDk-238">
          <mxGeometry y="100" width="160" height="22" as="geometry">
            <mxRectangle width="130" height="30" as="alternateBounds" />
          </mxGeometry>
        </mxCell>
        <mxCell id="KTCDiWODFEPLcZD3HsDk-246" value="&lt;b&gt;FK = id_cursos&lt;/b&gt;" style="shape=partialRectangle;connectable=0;fillColor=none;top=0;left=0;bottom=0;right=0;align=left;spacingLeft=6;fontStyle=0;overflow=hidden;whiteSpace=wrap;html=1;" vertex="1" parent="KTCDiWODFEPLcZD3HsDk-238">
          <mxGeometry y="122" width="160" height="24" as="geometry">
            <mxRectangle width="130" height="30" as="alternateBounds" />
          </mxGeometry>
        </mxCell>
        <mxCell id="KTCDiWODFEPLcZD3HsDk-247" value="&lt;b&gt;FK = id_campus&lt;/b&gt;" style="shape=partialRectangle;connectable=0;fillColor=none;top=0;left=0;bottom=0;right=0;align=left;spacingLeft=6;fontStyle=0;overflow=hidden;whiteSpace=wrap;html=1;" vertex="1" parent="KTCDiWODFEPLcZD3HsDk-238">
          <mxGeometry y="146" width="160" height="28" as="geometry">
            <mxRectangle width="130" height="30" as="alternateBounds" />
          </mxGeometry>
        </mxCell>
        <mxCell id="KTCDiWODFEPLcZD3HsDk-258" value="Estudiantes" style="swimlane;html=1;fontStyle=0;childLayout=stackLayout;horizontal=1;startSize=26;fillColor=#e0e0e0;horizontalStack=0;resizeParent=1;resizeLast=0;collapsible=1;marginBottom=0;swimlaneFillColor=#ffffff;align=center;rounded=0;shadow=0;comic=0;labelBackgroundColor=none;strokeWidth=1;fontFamily=Verdana;fontSize=14" vertex="1" parent="1">
          <mxGeometry x="740" y="294" width="160" height="196" as="geometry" />
        </mxCell>
        <mxCell id="KTCDiWODFEPLcZD3HsDk-259" value="id_estudiantes" style="shape=partialRectangle;top=0;left=0;right=0;bottom=1;html=1;align=left;verticalAlign=middle;fillColor=none;spacingLeft=34;spacingRight=4;whiteSpace=wrap;overflow=hidden;rotatable=0;points=[[0,0.5],[1,0.5]];portConstraint=eastwest;dropTarget=0;fontStyle=5;" vertex="1" parent="KTCDiWODFEPLcZD3HsDk-258">
          <mxGeometry y="26" width="160" height="30" as="geometry" />
        </mxCell>
        <mxCell id="KTCDiWODFEPLcZD3HsDk-260" value="PK" style="shape=partialRectangle;top=0;left=0;bottom=0;html=1;fillColor=none;align=left;verticalAlign=middle;spacingLeft=4;spacingRight=4;whiteSpace=wrap;overflow=hidden;rotatable=0;points=[];portConstraint=eastwest;part=1;" vertex="1" connectable="0" parent="KTCDiWODFEPLcZD3HsDk-259">
          <mxGeometry width="30" height="30" as="geometry" />
        </mxCell>
        <mxCell id="KTCDiWODFEPLcZD3HsDk-261" value="Nombre" style="shape=partialRectangle;connectable=0;fillColor=none;top=0;left=0;bottom=0;right=0;align=left;spacingLeft=6;fontStyle=0;overflow=hidden;whiteSpace=wrap;html=1;" vertex="1" parent="KTCDiWODFEPLcZD3HsDk-258">
          <mxGeometry y="56" width="160" height="22" as="geometry">
            <mxRectangle width="130" height="30" as="alternateBounds" />
          </mxGeometry>
        </mxCell>
        <mxCell id="KTCDiWODFEPLcZD3HsDk-266" value="Email" style="shape=partialRectangle;connectable=0;fillColor=none;top=0;left=0;bottom=0;right=0;align=left;spacingLeft=6;fontStyle=0;overflow=hidden;whiteSpace=wrap;html=1;" vertex="1" parent="KTCDiWODFEPLcZD3HsDk-258">
          <mxGeometry y="78" width="160" height="22" as="geometry">
            <mxRectangle width="130" height="30" as="alternateBounds" />
          </mxGeometry>
        </mxCell>
        <mxCell id="KTCDiWODFEPLcZD3HsDk-262" value="Edad" style="shape=partialRectangle;connectable=0;fillColor=none;top=0;left=0;bottom=0;right=0;align=left;spacingLeft=6;fontStyle=0;overflow=hidden;whiteSpace=wrap;html=1;" vertex="1" parent="KTCDiWODFEPLcZD3HsDk-258">
          <mxGeometry y="100" width="160" height="22" as="geometry">
            <mxRectangle width="130" height="30" as="alternateBounds" />
          </mxGeometry>
        </mxCell>
        <mxCell id="KTCDiWODFEPLcZD3HsDk-263" value="Género" style="shape=partialRectangle;connectable=0;fillColor=none;top=0;left=0;bottom=0;right=0;align=left;spacingLeft=6;fontStyle=0;overflow=hidden;whiteSpace=wrap;html=1;" vertex="1" parent="KTCDiWODFEPLcZD3HsDk-258">
          <mxGeometry y="122" width="160" height="22" as="geometry">
            <mxRectangle width="130" height="30" as="alternateBounds" />
          </mxGeometry>
        </mxCell>
        <mxCell id="KTCDiWODFEPLcZD3HsDk-264" value="&lt;b&gt;FK = id_calificaciones&lt;/b&gt;" style="shape=partialRectangle;connectable=0;fillColor=none;top=0;left=0;bottom=0;right=0;align=left;spacingLeft=6;fontStyle=0;overflow=hidden;whiteSpace=wrap;html=1;" vertex="1" parent="KTCDiWODFEPLcZD3HsDk-258">
          <mxGeometry y="144" width="160" height="24" as="geometry">
            <mxRectangle width="130" height="30" as="alternateBounds" />
          </mxGeometry>
        </mxCell>
        <mxCell id="KTCDiWODFEPLcZD3HsDk-265" value="&lt;b&gt;FK = id_cursos&lt;/b&gt;" style="shape=partialRectangle;connectable=0;fillColor=none;top=0;left=0;bottom=0;right=0;align=left;spacingLeft=6;fontStyle=0;overflow=hidden;whiteSpace=wrap;html=1;" vertex="1" parent="KTCDiWODFEPLcZD3HsDk-258">
          <mxGeometry y="168" width="160" height="28" as="geometry">
            <mxRectangle width="130" height="30" as="alternateBounds" />
          </mxGeometry>
        </mxCell>
        <mxCell id="KTCDiWODFEPLcZD3HsDk-267" value="Proyectos" style="swimlane;html=1;fontStyle=0;childLayout=stackLayout;horizontal=1;startSize=26;fillColor=#e0e0e0;horizontalStack=0;resizeParent=1;resizeLast=0;collapsible=1;marginBottom=0;swimlaneFillColor=#ffffff;align=center;rounded=0;shadow=0;comic=0;labelBackgroundColor=none;strokeWidth=1;fontFamily=Verdana;fontSize=14" vertex="1" parent="1">
          <mxGeometry x="470" y="490" width="160" height="134" as="geometry" />
        </mxCell>
        <mxCell id="KTCDiWODFEPLcZD3HsDk-268" value="id_proyectos" style="shape=partialRectangle;top=0;left=0;right=0;bottom=1;html=1;align=left;verticalAlign=middle;fillColor=none;spacingLeft=34;spacingRight=4;whiteSpace=wrap;overflow=hidden;rotatable=0;points=[[0,0.5],[1,0.5]];portConstraint=eastwest;dropTarget=0;fontStyle=5;" vertex="1" parent="KTCDiWODFEPLcZD3HsDk-267">
          <mxGeometry y="26" width="160" height="30" as="geometry" />
        </mxCell>
        <mxCell id="KTCDiWODFEPLcZD3HsDk-269" value="PK" style="shape=partialRectangle;top=0;left=0;bottom=0;html=1;fillColor=none;align=left;verticalAlign=middle;spacingLeft=4;spacingRight=4;whiteSpace=wrap;overflow=hidden;rotatable=0;points=[];portConstraint=eastwest;part=1;" vertex="1" connectable="0" parent="KTCDiWODFEPLcZD3HsDk-268">
          <mxGeometry width="30" height="30" as="geometry" />
        </mxCell>
        <mxCell id="KTCDiWODFEPLcZD3HsDk-270" value="Nombre" style="shape=partialRectangle;connectable=0;fillColor=none;top=0;left=0;bottom=0;right=0;align=left;spacingLeft=6;fontStyle=0;overflow=hidden;whiteSpace=wrap;html=1;" vertex="1" parent="KTCDiWODFEPLcZD3HsDk-267">
          <mxGeometry y="56" width="160" height="22" as="geometry">
            <mxRectangle width="130" height="30" as="alternateBounds" />
          </mxGeometry>
        </mxCell>
        <mxCell id="KTCDiWODFEPLcZD3HsDk-274" value="&lt;b&gt;FK = id_calificaciones&lt;/b&gt;" style="shape=partialRectangle;connectable=0;fillColor=none;top=0;left=0;bottom=0;right=0;align=left;spacingLeft=6;fontStyle=0;overflow=hidden;whiteSpace=wrap;html=1;" vertex="1" parent="KTCDiWODFEPLcZD3HsDk-267">
          <mxGeometry y="78" width="160" height="24" as="geometry">
            <mxRectangle width="130" height="30" as="alternateBounds" />
          </mxGeometry>
        </mxCell>
        <mxCell id="KTCDiWODFEPLcZD3HsDk-275" value="&lt;b&gt;FK = id_cursos&lt;/b&gt;" style="shape=partialRectangle;connectable=0;fillColor=none;top=0;left=0;bottom=0;right=0;align=left;spacingLeft=6;fontStyle=0;overflow=hidden;whiteSpace=wrap;html=1;" vertex="1" parent="KTCDiWODFEPLcZD3HsDk-267">
          <mxGeometry y="102" width="160" height="28" as="geometry">
            <mxRectangle width="130" height="30" as="alternateBounds" />
          </mxGeometry>
        </mxCell>
        <mxCell id="KTCDiWODFEPLcZD3HsDk-276" value="Calificaciones" style="swimlane;html=1;fontStyle=0;childLayout=stackLayout;horizontal=1;startSize=26;fillColor=#e0e0e0;horizontalStack=0;resizeParent=1;resizeLast=0;collapsible=1;marginBottom=0;swimlaneFillColor=#ffffff;align=center;rounded=0;shadow=0;comic=0;labelBackgroundColor=none;strokeWidth=1;fontFamily=Verdana;fontSize=14" vertex="1" parent="1">
          <mxGeometry x="760" y="620" width="160" height="130" as="geometry" />
        </mxCell>
        <mxCell id="KTCDiWODFEPLcZD3HsDk-277" value="id_calificaiones" style="shape=partialRectangle;top=0;left=0;right=0;bottom=1;html=1;align=left;verticalAlign=middle;fillColor=none;spacingLeft=34;spacingRight=4;whiteSpace=wrap;overflow=hidden;rotatable=0;points=[[0,0.5],[1,0.5]];portConstraint=eastwest;dropTarget=0;fontStyle=5;" vertex="1" parent="KTCDiWODFEPLcZD3HsDk-276">
          <mxGeometry y="26" width="160" height="30" as="geometry" />
        </mxCell>
        <mxCell id="KTCDiWODFEPLcZD3HsDk-278" value="PK" style="shape=partialRectangle;top=0;left=0;bottom=0;html=1;fillColor=none;align=left;verticalAlign=middle;spacingLeft=4;spacingRight=4;whiteSpace=wrap;overflow=hidden;rotatable=0;points=[];portConstraint=eastwest;part=1;" vertex="1" connectable="0" parent="KTCDiWODFEPLcZD3HsDk-277">
          <mxGeometry width="30" height="30" as="geometry" />
        </mxCell>
        <mxCell id="KTCDiWODFEPLcZD3HsDk-279" value="Calificación" style="shape=partialRectangle;connectable=0;fillColor=none;top=0;left=0;bottom=0;right=0;align=left;spacingLeft=6;fontStyle=0;overflow=hidden;whiteSpace=wrap;html=1;" vertex="1" parent="KTCDiWODFEPLcZD3HsDk-276">
          <mxGeometry y="56" width="160" height="22" as="geometry">
            <mxRectangle width="130" height="30" as="alternateBounds" />
          </mxGeometry>
        </mxCell>
        <mxCell id="KTCDiWODFEPLcZD3HsDk-280" value="&lt;b&gt;FK = id_estudiante&lt;/b&gt;" style="shape=partialRectangle;connectable=0;fillColor=none;top=0;left=0;bottom=0;right=0;align=left;spacingLeft=6;fontStyle=0;overflow=hidden;whiteSpace=wrap;html=1;" vertex="1" parent="KTCDiWODFEPLcZD3HsDk-276">
          <mxGeometry y="78" width="160" height="24" as="geometry">
            <mxRectangle width="130" height="30" as="alternateBounds" />
          </mxGeometry>
        </mxCell>
        <mxCell id="KTCDiWODFEPLcZD3HsDk-281" value="&lt;b&gt;FK = id_proyectos&lt;/b&gt;" style="shape=partialRectangle;connectable=0;fillColor=none;top=0;left=0;bottom=0;right=0;align=left;spacingLeft=6;fontStyle=0;overflow=hidden;whiteSpace=wrap;html=1;" vertex="1" parent="KTCDiWODFEPLcZD3HsDk-276">
          <mxGeometry y="102" width="160" height="28" as="geometry">
            <mxRectangle width="130" height="30" as="alternateBounds" />
          </mxGeometry>
        </mxCell>
        <mxCell id="KTCDiWODFEPLcZD3HsDk-289" value="" style="edgeStyle=entityRelationEdgeStyle;fontSize=12;html=1;endArrow=ERoneToMany;rounded=0;startSize=8;endSize=8;curved=1;entryX=-0.019;entryY=0.063;entryDx=0;entryDy=0;entryPerimeter=0;" edge="1" parent="1" target="KTCDiWODFEPLcZD3HsDk-226">
          <mxGeometry width="100" height="100" relative="1" as="geometry">
            <mxPoint x="610" y="120" as="sourcePoint" />
            <mxPoint x="700" y="50" as="targetPoint" />
            <Array as="points">
              <mxPoint x="630" y="80" />
            </Array>
          </mxGeometry>
        </mxCell>
        <mxCell id="KTCDiWODFEPLcZD3HsDk-290" value="" style="edgeStyle=entityRelationEdgeStyle;fontSize=12;html=1;endArrow=ERoneToMany;rounded=0;startSize=8;endSize=8;curved=1;exitX=0;exitY=0.75;exitDx=0;exitDy=0;entryX=1;entryY=0.5;entryDx=0;entryDy=0;" edge="1" parent="1" source="2e49270ec7c68f3f-80" target="KTCDiWODFEPLcZD3HsDk-239">
          <mxGeometry width="100" height="100" relative="1" as="geometry">
            <mxPoint x="500" y="132" as="sourcePoint" />
            <mxPoint x="310" y="170" as="targetPoint" />
            <Array as="points">
              <mxPoint x="330" y="122" />
              <mxPoint x="390" y="80" />
              <mxPoint x="280" y="190" />
              <mxPoint x="400" y="150" />
              <mxPoint x="340" y="90" />
              <mxPoint x="360" y="122" />
              <mxPoint x="390" y="212" />
            </Array>
          </mxGeometry>
        </mxCell>
        <mxCell id="KTCDiWODFEPLcZD3HsDk-291" value="" style="edgeStyle=entityRelationEdgeStyle;fontSize=12;html=1;endArrow=ERoneToMany;rounded=0;startSize=8;endSize=8;curved=1;exitX=1;exitY=0.75;exitDx=0;exitDy=0;" edge="1" parent="1" source="KTCDiWODFEPLcZD3HsDk-238" target="KTCDiWODFEPLcZD3HsDk-211">
          <mxGeometry width="100" height="100" relative="1" as="geometry">
            <mxPoint x="300" y="390" as="sourcePoint" />
            <mxPoint x="330" y="310" as="targetPoint" />
          </mxGeometry>
        </mxCell>
        <mxCell id="KTCDiWODFEPLcZD3HsDk-292" value="" style="edgeStyle=entityRelationEdgeStyle;fontSize=12;html=1;endArrow=ERoneToMany;rounded=0;startSize=8;endSize=8;curved=1;exitX=0;exitY=0.75;exitDx=0;exitDy=0;entryX=1;entryY=0.5;entryDx=0;entryDy=0;" edge="1" parent="1" source="KTCDiWODFEPLcZD3HsDk-226" target="KTCDiWODFEPLcZD3HsDk-211">
          <mxGeometry width="100" height="100" relative="1" as="geometry">
            <mxPoint x="650" y="330" as="sourcePoint" />
            <mxPoint x="720" y="380" as="targetPoint" />
            <Array as="points">
              <mxPoint x="770" y="130" />
            </Array>
          </mxGeometry>
        </mxCell>
        <mxCell id="KTCDiWODFEPLcZD3HsDk-293" value="" style="edgeStyle=entityRelationEdgeStyle;fontSize=12;html=1;endArrow=ERoneToMany;rounded=0;startSize=8;endSize=8;curved=1;entryX=0;entryY=0.5;entryDx=0;entryDy=0;exitX=0;exitY=1;exitDx=0;exitDy=0;" edge="1" parent="1" source="KTCDiWODFEPLcZD3HsDk-210" target="KTCDiWODFEPLcZD3HsDk-268">
          <mxGeometry width="100" height="100" relative="1" as="geometry">
            <mxPoint x="310" y="380" as="sourcePoint" />
            <mxPoint x="360" y="340" as="targetPoint" />
            <Array as="points">
              <mxPoint x="410" y="390" />
            </Array>
          </mxGeometry>
        </mxCell>
        <mxCell id="KTCDiWODFEPLcZD3HsDk-295" value="" style="edgeStyle=entityRelationEdgeStyle;fontSize=12;html=1;endArrow=ERmandOne;startArrow=ERmandOne;rounded=0;startSize=8;endSize=8;curved=1;exitX=0;exitY=0.5;exitDx=0;exitDy=0;entryX=1;entryY=0.75;entryDx=0;entryDy=0;" edge="1" parent="1" source="KTCDiWODFEPLcZD3HsDk-277" target="KTCDiWODFEPLcZD3HsDk-267">
          <mxGeometry width="100" height="100" relative="1" as="geometry">
            <mxPoint x="320" y="690" as="sourcePoint" />
            <mxPoint x="630" y="580" as="targetPoint" />
            <Array as="points">
              <mxPoint x="790" y="600" />
            </Array>
          </mxGeometry>
        </mxCell>
        <mxCell id="KTCDiWODFEPLcZD3HsDk-296" value="" style="edgeStyle=entityRelationEdgeStyle;fontSize=12;html=1;endArrow=ERoneToMany;rounded=0;startSize=8;endSize=8;curved=1;entryX=1;entryY=0.8;entryDx=0;entryDy=0;entryPerimeter=0;exitX=0;exitY=1;exitDx=0;exitDy=0;" edge="1" parent="1" source="KTCDiWODFEPLcZD3HsDk-258" target="KTCDiWODFEPLcZD3HsDk-211">
          <mxGeometry width="100" height="100" relative="1" as="geometry">
            <mxPoint x="800" y="530" as="sourcePoint" />
            <mxPoint x="720" y="290" as="targetPoint" />
            <Array as="points">
              <mxPoint x="600" y="460" />
            </Array>
          </mxGeometry>
        </mxCell>
        <mxCell id="KTCDiWODFEPLcZD3HsDk-299" value="" style="edgeStyle=entityRelationEdgeStyle;fontSize=12;html=1;endArrow=ERoneToMany;rounded=0;startSize=8;endSize=8;curved=1;entryX=1;entryY=0.5;entryDx=0;entryDy=0;" edge="1" parent="1" target="KTCDiWODFEPLcZD3HsDk-259">
          <mxGeometry width="100" height="100" relative="1" as="geometry">
            <mxPoint x="920" y="710" as="sourcePoint" />
            <mxPoint x="790" y="370" as="targetPoint" />
          </mxGeometry>
        </mxCell>
      </root>
    </mxGraphModel>
  </diagram>
</mxfile>
